<?xml version="1.0" standalone="no"?><!DOCTYPE svg PUBLIC "-//W3C//DTD SVG 1.1//EN" "http://www.w3.org/Graphics/SVG/1.1/DTD/svg11.dtd"><svg t="1540777141075" class="icon" style="" viewBox="0 0 1243 1024" version="1.1" xmlns="http://www.w3.org/2000/svg" p-id="4875" xmlns:xlink="http://www.w3.org/1999/xlink" width="242.7734375" height="200"><defs><style type="text/css"></style></defs><path d="M952.027429 819.2c-32.182857 0-58.294857-25.014857-58.294858-55.881143 0-30.793143 26.112-55.808 58.294858-55.808 96.548571 0 174.811429-75.044571 174.811428-167.570286a164.132571 164.132571 0 0 0-70.582857-134.290285l-0.731429-0.585143a181.394286 181.394286 0 0 0-11.702857-7.533714l-1.901714-1.097143a181.613714 181.613714 0 0 0-11.410286-6.070857l-3.218285-1.462858a188.854857 188.854857 0 0 0-10.971429-4.681142l-4.827429-1.682286a186.221714 186.221714 0 0 0-10.093714-3.291429c-2.267429-0.658286-4.608-1.097143-6.875428-1.682285-2.925714-0.731429-5.851429-1.462857-8.850286-2.048-3.218286-0.585143-6.436571-0.950857-9.654857-1.389715-2.267429-0.292571-4.534857-0.731429-6.875429-0.950857a186.368 186.368 0 0 0-17.115428-0.804571c-1.828571 0-3.657143 0.219429-5.412572 0.219428a295.204571 295.204571 0 0 0-6.656-28.086857c-0.658286-2.267429-1.462857-4.388571-2.194286-6.656-2.194286-7.021714-4.388571-13.897143-7.094857-20.699428-0.804571-2.048-1.828571-4.022857-2.633143-6.070858a326.217143 326.217143 0 0 0-9.216-20.333714c-0.731429-1.609143-1.755429-3.145143-2.56-4.681143a318.976 318.976 0 0 0-11.629714-20.48c-57.636571-92.16-162.669714-153.892571-282.916571-153.892571-120.32 0-225.28 61.805714-282.916572 153.892571-4.169143 6.656-7.972571 13.531429-11.702857 20.48-0.731429 1.536-1.682286 3.072-2.486857 4.681143a316.708571 316.708571 0 0 0-9.216 20.333714c-0.804571 2.048-1.828571 4.022857-2.633143 6.070858a300.105143 300.105143 0 0 0-7.094857 20.699428l-2.194286 6.582857a294.619429 294.619429 0 0 0-6.582857 28.16c-1.901714 0-3.657143-0.219429-5.485714-0.219428-5.778286 0-11.483429 0.292571-17.115429 0.804571-2.340571 0.219429-4.608 0.658286-6.875428 0.950857-3.218286 0.438857-6.436571 0.804571-9.654857 1.462857-2.925714 0.512-5.851429 1.243429-8.777143 1.974858-2.340571 0.585143-4.681143 1.024-6.948572 1.682285a186.660571 186.660571 0 0 0-10.093714 3.291429l-4.900571 1.682286c-3.657143 1.462857-7.314286 2.925714-10.898286 4.608l-3.218286 1.462857a173.860571 173.860571 0 0 0-11.410286 6.144l-1.901714 1.097143a185.563429 185.563429 0 0 0-11.702857 7.533714l-0.731429 0.585143a164.205714 164.205714 0 0 0-70.582857 134.290285c0 92.525714 78.262857 167.497143 174.811429 167.497143 32.182857 0 58.294857 25.088 58.294857 55.881143 0 30.866286-26.112 55.881143-58.294857 55.881143C130.486857 819.2 0 694.125714 0 539.940571c0-125.805714 86.820571-232.155429 206.262857-267.117714C270.994286 113.371429 432.274286 0 621.714286 0s350.646857 113.371429 415.524571 272.822857C1156.608 307.785143 1243.428571 414.134857 1243.428571 539.940571c0 154.185143-130.486857 279.259429-291.401142 279.259429zM403.529143 688.713143l0.073143-0.073143 0.146285-0.146286L578.413714 502.491429l0.146286 0.146285a59.099429 59.099429 0 0 1 86.308571 0l0.146286-0.146285 174.665143 185.929142v0.073143l0.219429 0.146286c8.118857 8.704 13.458286 19.748571 14.628571 32.036571v0.146286a48.420571 48.420571 0 0 1 0.365714 5.12c0 30.939429-26.112 55.954286-58.294857 55.954286h-1.901714l-1.170286-0.073143-1.243428-0.073143-1.901715-0.219428h-0.731428l-2.486857-0.365715a58.806857 58.806857 0 0 1-33.938286-17.773714L680.009143 685.494857v282.624c0 30.866286-26.112 55.881143-58.294857 55.881143-32.182857 0-58.294857-25.014857-58.294857-55.881143V685.494857l-73.216 77.970286a58.587429 58.587429 0 0 1-33.865143 17.700571c-0.877714 0.219429-1.682286 0.292571-2.56 0.365715a13.677714 13.677714 0 0 1-0.731429 0.073142l-1.901714 0.219429h-1.243429l-1.097143 0.073143h-1.974857a58.660571 58.660571 0 0 1-51.2-29.184 53.686857 53.686857 0 0 1 7.899429-64z" p-id="4876"></path></svg>